/* XPM */
static char * bottom_right_active_xpm[] = {
"20 20 3 1",
" 	c None",
".	c #3D3E40",
"+	c #2B2B2C",
"...................+",
"...................+",
"...................+",
"...................+",
"...................+",
"...................+",
"...................+",
"...................+",
"...................+",
"...................+",
"...................+",
"...................+",
"...................+",
"...................+",
"...................+",
"...................+",
"...................+",
"...................+",
"...................+",
"++++++++++++++++++++"};
