/* XPM */
static char * bottom_left_inactive_xpm[] = {
"20 20 3 1",
" 	c None",
".	c #2B2B2C",
"+	c #3D3E40",
".+++++++++++++++++++",
".+++++++++++++++++++",
".+++++++++++++++++++",
".+++++++++++++++++++",
".+++++++++++++++++++",
".+++++++++++++++++++",
".+++++++++++++++++++",
".+++++++++++++++++++",
".+++++++++++++++++++",
".+++++++++++++++++++",
".+++++++++++++++++++",
".+++++++++++++++++++",
".+++++++++++++++++++",
".+++++++++++++++++++",
".+++++++++++++++++++",
".+++++++++++++++++++",
".+++++++++++++++++++",
".+++++++++++++++++++",
".+++++++++++++++++++",
"...................."};
