/* XPM */
static char * close_prelight_xpm[] = {
"22 22 67 1",
" 	c None",
".	c #000000",
"+	c #6D7077",
"@	c #4D4F52",
"#	c #4C4E51",
"$	c #4A4C4F",
"%	c #383A3C",
"&	c #262728",
"*	c #1F2021",
"=	c #4B4D50",
"-	c #46474A",
";	c #252628",
">	c #1A1B1C",
",	c #171819",
"'	c #161718",
")	c #46484A",
"!	c #494B4E",
"~	c #191A1B",
"{	c #18191A",
"]	c #1A1A1B",
"^	c #262729",
"/	c #4B4D4F",
"(	c #37393A",
"_	c #1C1D1E",
":	c #FF0000",
"<	c #27282A",
"[	c #28292B",
"}	c #4A4C4E",
"|	c #212223",
"1	c #222324",
"2	c #505255",
"3	c #2B2C2D",
"4	c #1B1B1D",
"5	c #2B2C2E",
"6	c #494B4D",
"7	c #515355",
"8	c #3F4142",
"9	c #281F20",
"0	c #231E1F",
"a	c #404243",
"b	c #505254",
"c	c #484A4D",
"d	c #5B5D60",
"e	c #1D1E20",
"f	c #231D1E",
"g	c #1E1F20",
"h	c #484A4C",
"i	c #525355",
"j	c #5D5E60",
"k	c #2D2E2F",
"l	c #202121",
"m	c #202122",
"n	c #2E2F30",
"o	c #5D5F60",
"p	c #47494C",
"q	c #535558",
"r	c #67686B",
"s	c #2E3031",
"t	c #252627",
"u	c #303133",
"v	c #535557",
"w	c #47494B",
"x	c #5C5E60",
"y	c #686A6C",
"z	c #707173",
"A	c #5B5D5F",
"B	c #454749",
"......................",
"++++++++++++++++++++++",
"@@@@@@@@@@@@@@@@@@@@@@",
"@@@@@@@@@@@@@@@@@@@@@@",
"######################",
"#######$%&**&%=#######",
"======-;>,'',>&)======",
"=====!&~{{{{{{]^!=====",
"/////(_{::{{::{_(/////",
"$$$$$<~{::{{::{~[$$$$$",
"}}}}}|{{{{::{{{{1}}}}}",
"!!!!=1{{{{::{{{{1=!!!!",
"!!!!234{::{{::{452!!!!",
"666678*9::{{::0*ab6666",
"cccc$d3ef{{{{fg5d$cccc",
"hhhhhijkl_>>_mno7hhhhh",
"ppppppqr6sttu6rvpppppp",
"wwwwwww}xyzzyA}wwwwwww",
"wwwwwwwwwwwwwwwwwwwwww",
"))))))))))))))))))))))",
"))))))))))))))))))))))",
"BBBBBBBBBBBBBBBBBBBBBB"};
