/* XPM */
static char * close_pressed_xpm[] = {
"22 22 19 1",
" 	c None",
".	c #000000",
"+	c #6D7077",
"@	c #4D4F52",
"#	c #4C4E51",
"$	c #4B4D50",
"%	c #4C4E50",
"&	c #4A4C4F",
"*	c #4B4D4F",
"=	c #4A4C4E",
"-	c #494B4D",
";	c #C95D59",
">	c #494B4E",
",	c #484A4D",
"'	c #484A4C",
")	c #47494C",
"!	c #47494B",
"~	c #46484A",
"{	c #454749",
"......................",
"++++++++++++++++++++++",
"@@@@@######@@@@@@@@@@@",
"@@@###$%%&$&$$#@@@@@@@",
"##$$*=========&$&$####",
"##$&=======---====$###",
"$&&----=====----===&$$",
"$&===--======----==&$$",
"*====--;====;--=-==***",
"&=====;;;==;;;==-===&&",
"=====--;;;;;;==--=====",
">>>>=--=;;;;===--=>>>>",
">>>>=---;;;;====-=>>>>",
"----=--;;;;;;=====----",
",,,,==;;;--;;;-===,,,,",
"''''---;---=;--==--'''",
")))'---======--=-)))))",
"!!!!---======-!!!!!!!!",
"!!!!!''!''''--'!!!!!!!",
"~~~~~~~~~~~~~~~~~~~~~~",
"~~~~~~~~~~~~~~~~~~~~~~",
"{{{{{{{{{{{{{{{{{{{{{{"};
