/* XPM */
static char * close_inactive_xpm[] = {
"22 22 20 1",
" 	c None",
".	c #000000",
"+	c #6D7077",
"@	c #4D4F52",
"#	c #4C4E51",
"$	c #4B4D50",
"%	c #4C4E50",
"&	c #4A4C4F",
"*	c #494B4E",
"=	c #494B4D",
"-	c #4A4C4E",
";	c #494B4C",
">	c #494B4B",
",	c #828282",
"'	c #484A4B",
")	c #47494B",
"!	c #484A4A",
"~	c #47494A",
"{	c #474949",
"]	c #464849",
"......................",
"++++++++++++++++++++++",
"@@@@@######@@@@@@@@@@@",
"@@@###$%%&$&$$#@@@@@@@",
"&*=&----------&$&$####",
";;>;==-----===--=;*=&&",
">>>>;;=-----===;>>>>>*",
">>>>;;=------==>>>>>>>",
">>>>;;=,----,==>>>>>>>",
">>>>;-,,,--,,,>>>>>>>>",
">>>>=;=,,,,,,>>>>>>>>>",
">>>>;;=-,,,,->>>>>>>>>",
">>>>;;==,,,,->>>>>>>>>",
">>>>;;=,,,,,,>>>>>>>>>",
"'''';-,,,==,,,>>>>''''",
"''''>;;,>>>>,>>>>>>'''",
")'''>>;>>>>>>>>>>'''')",
")'''>>>>>>>>>>''''''''",
"'''>>>''''''>>''''''''",
"!!!!!!!!!!!!!!!!!!!!!!",
"!!!!!!!!!!!!!!!!!!!!!~",
"!!!!!~~~~!!!!!!!!!!{~]"};
