/* XPM */
static char * hide_prelight_xpm[] = {
"22 22 23 1",
" 	c None",
".	c #000000",
"+	c #6D7077",
"@	c #6C6F76",
"#	c #6C6F75",
"$	c #6B6E75",
"%	c #6A6D73",
"&	c #696C73",
"*	c #6A6D74",
"=	c #4D4F52",
"-	c #4C4E51",
";	c #4B4D50",
">	c #4A4C4F",
",	c #494B4B",
"'	c #4A4C4E",
")	c #494B4D",
"!	c #494B4C",
"~	c #C2C2C2",
"{	c #484A4B",
"]	c #484A4A",
"^	c #47494A",
"/	c #464849",
"(	c #454749",
"......................",
"+++++++@@#$%&&*$@@++++",
"======------;------===",
"=====---;;;;;;;;---===",
"---;;;;;;;;;;;;;;;;---",
";;>>;;;>;;;;;;>>>;;;;-",
">,'>;;>>;;;;;;>''>>;;;",
"),,,!,,,,!,,,,!,,!)))>",
",,,,,,,,,,,,,,,,,,,,,!",
",,,,,,,,,,,,,,,,,,,,,,",
",,,,,,,,,,!,,,,,,,,,,!",
",,,,,,)~~~~~~~~!,,,,,,",
",,,,,,)~~~~~~~~!,,,,,,",
",,,,,,!!)!!)!,!,,,,,,,",
"{,,,,,,,,,,,,,,,,,,,{{",
"{,,,,,,,,,,,,,,,,,,,{{",
"{{!,,,,,,,,,,,,,,!,,{{",
"{{,,,,,,,,,,,,,,,,,{{{",
"{{{{,,,,,,,,,,,,,,{{{{",
"]]]]{{,,,,,,,,{{]]]]]]",
"]]]]]]{{{{{{{{]]]]]]]]",
"]]]]]]]]]]]]]]^^^///(("};
