/* XPM */
static char * hide_pressed_xpm[] = {
"22 22 20 1",
" 	c None",
".	c #000000",
"+	c #6D7077",
"@	c #6C6F76",
"#	c #6C6F75",
"$	c #6B6E75",
"%	c #6A6D73",
"&	c #696C73",
"*	c #6A6D74",
"=	c #4D4F52",
"-	c #4C4E51",
";	c #4B4D50",
">	c #4A4C4F",
",	c #494B4B",
"'	c #4A4C4E",
")	c #494B4C",
"!	c #494B4D",
"~	c #8CBC65",
"{	c #484A4B",
"]	c #484A4A",
"......................",
"+++++++@@#$%&&*$@@++++",
"======------;------===",
"=====---;;;;;;;;---===",
"---;;;;;;;;;;;;;;;;---",
";;>>;;;>;;;;;;>>>;;;;-",
">,'>;;>>;;;;;;>''>>;;;",
",,,,,,,,,),,,,),,)!!!>",
",,,,,,,,,,,,,,,,,,,,,)",
",,,,,,,,,,,,,,,,,,,,,,",
",,,,,,,,,,),,,,,,,,,,,",
",,,,,,)~~~~~~~~),,,,,,",
",,,,,,!~~~~~~~~),,,,,,",
",,,,,,))),,!),),,,,,,,",
"{,,,,,,,,,,,,,,,,,,,{{",
",,,,,,,,,,,,,,,,,,,,{{",
",,,,,,,,,,,,,,,,,,,,{{",
",,,,,,,,,,,,,,,,,,,,,{",
"{,,,,,,,,,,,,,,,,,,,,{",
"],,,,,,,,,,,,,,,,,,,,,",
"]],,,,,,,,,,,,,,,,,,,]",
"]],,,,],,,,],,,,,]]]]]"};
