/* XPM */
static char * hide_prelight_xpm[] = {
"22 22 66 1",
" 	c None",
".	c #000000",
"+	c #6D7077",
"@	c #4D4F52",
"#	c #4C4E51",
"$	c #4A4C4F",
"%	c #383A3C",
"&	c #262728",
"*	c #1F2021",
"=	c #4B4D50",
"-	c #46474A",
";	c #252628",
">	c #1A1B1C",
",	c #171819",
"'	c #161718",
")	c #46484A",
"!	c #494B4E",
"~	c #191A1B",
"{	c #18191A",
"]	c #1A1A1B",
"^	c #262729",
"/	c #4B4D4F",
"(	c #37393A",
"_	c #1C1D1E",
":	c #27282A",
"<	c #28292B",
"[	c #4A4C4E",
"}	c #212223",
"|	c #8CBC65",
"1	c #222324",
"2	c #505255",
"3	c #2B2C2D",
"4	c #1B1B1D",
"5	c #2B2C2E",
"6	c #494B4D",
"7	c #515355",
"8	c #3F4142",
"9	c #1F231F",
"0	c #404243",
"a	c #505254",
"b	c #484A4D",
"c	c #5B5D60",
"d	c #1D1E20",
"e	c #1E241E",
"f	c #1E1F20",
"g	c #484A4C",
"h	c #525355",
"i	c #5D5E60",
"j	c #2D2E2F",
"k	c #202121",
"l	c #202122",
"m	c #2E2F30",
"n	c #5D5F60",
"o	c #47494C",
"p	c #535558",
"q	c #67686B",
"r	c #2E3031",
"s	c #252627",
"t	c #303133",
"u	c #535557",
"v	c #47494B",
"w	c #5C5E60",
"x	c #686A6C",
"y	c #707173",
"z	c #5B5D5F",
"A	c #454749",
"......................",
"++++++++++++++++++++++",
"@@@@@@@@@@@@@@@@@@@@@@",
"@@@@@@@@@@@@@@@@@@@@@@",
"######################",
"#######$%&**&%=#######",
"======-;>,'',>&)======",
"=====!&~{{{{{{]^!=====",
"/////(_{{{{{{{{_(/////",
"$$$$$:~{{{{{{{{~<$$$$$",
"[[[[[}{||||||||{1[[[[[",
"!!!!=1{||||||||{1=!!!!",
"!!!!234{{{{{{{{452!!!!",
"666678*{{{{{{{9*0a6666",
"bbbb$c3d{{{{{ef5c$bbbb",
"ggggghijk_>>_lmn7ggggg",
"oooooopq6rsst6quoooooo",
"vvvvvvv[wxyyxz[vvvvvvv",
"vvvvvvvvvvvvvvvvvvvvvv",
"))))))))))))))))))))))",
"))))))))))))))))))))))",
"AAAAAAAAAAAAAAAAAAAAAA"};
