/* XPM */
static char * left_inactive_xpm[] = {
"2 20 3 1",
" 	c None",
".	c #333435",
"+	c #454749",
".+",
".+",
".+",
".+",
".+",
".+",
".+",
".+",
".+",
".+",
".+",
".+",
".+",
".+",
".+",
".+",
".+",
".+",
".+",
".+"};
