/* XPM */
static char * maximize_prelight_xpm[] = {
"22 22 64 1",
" 	c None",
".	c #000000",
"+	c #6D7077",
"@	c #4D4F52",
"#	c #4C4E51",
"$	c #4A4C4F",
"%	c #383A3C",
"&	c #262728",
"*	c #1F2021",
"=	c #4B4D50",
"-	c #46474A",
";	c #252628",
">	c #1A1B1C",
",	c #171819",
"'	c #161718",
")	c #46484A",
"!	c #494B4E",
"~	c #191A1B",
"{	c #18191A",
"]	c #E4FF00",
"^	c #1A1A1B",
"/	c #262729",
"(	c #4B4D4F",
"_	c #37393A",
":	c #1C1D1E",
"<	c #27282A",
"[	c #28292B",
"}	c #4A4C4E",
"|	c #212223",
"1	c #222324",
"2	c #505255",
"3	c #2B2C2D",
"4	c #1B1B1D",
"5	c #2B2C2E",
"6	c #494B4D",
"7	c #515355",
"8	c #3F4142",
"9	c #404243",
"0	c #505254",
"a	c #484A4D",
"b	c #5B5D60",
"c	c #1D1E20",
"d	c #1E1F20",
"e	c #484A4C",
"f	c #525355",
"g	c #5D5E60",
"h	c #2D2E2F",
"i	c #202121",
"j	c #202122",
"k	c #2E2F30",
"l	c #5D5F60",
"m	c #47494C",
"n	c #535558",
"o	c #67686B",
"p	c #2E3031",
"q	c #252627",
"r	c #303133",
"s	c #535557",
"t	c #47494B",
"u	c #5C5E60",
"v	c #686A6C",
"w	c #707173",
"x	c #5B5D5F",
"y	c #454749",
"......................",
"++++++++++++++++++++++",
"@@@@@@@@@@@@@@@@@@@@@@",
"@@@@@@@@@@@@@@@@@@@@@@",
"######################",
"#######$%&**&%=#######",
"======-;>,'',>&)======",
"=====!&~{{]]{{^/!=====",
"(((((_:{{{]]{{{:_(((((",
"$$$$$<~{{{]]{{{~[$$$$$",
"}}}}}|{]]]]]]]]{1}}}}}",
"!!!!=1{]]]]]]]]{1=!!!!",
"!!!!234{{{]]{{{452!!!!",
"666678*{{{]]{{{*906666",
"aaaa$b3c{{]]{{d5b$aaaa",
"eeeeefghi:>>:jkl7eeeee",
"mmmmmmno6pqqr6osmmmmmm",
"ttttttt}uvwwvx}ttttttt",
"tttttttttttttttttttttt",
"))))))))))))))))))))))",
"))))))))))))))))))))))",
"yyyyyyyyyyyyyyyyyyyyyy"};
