/* XPM */
static char * maximize_active_xpm[] = {
"22 22 19 1",
" 	c None",
".	c #000000",
"+	c #6D7077",
"@	c #4D4F52",
"#	c #4C4E51",
"$	c #4B4D50",
"%	c #4B4D4F",
"&	c #4A4C4F",
"*	c #4A4C4E",
"=	c #494B4D",
"-	c #494B4B",
";	c #494B4E",
">	c #494B4C",
",	c #4A4C4D",
"'	c #8E8E8E",
")	c #8D8D8D",
"!	c #484A4B",
"~	c #8B8B8B",
"{	c #484A4A",
"......................",
"++++++++++++++++++++++",
"@@@@@@@@@@@@@@@@@@@@@@",
"@@@@@@@@@@@@@@@@@@@@@@",
"#################$$%%$",
"$&&$&**=------;=&;>--,",
"=---------------------",
"----------------------",
"----------''----------",
"----------''----------",
"----------''----------",
"-------''''''')-------",
"-------''''''''-------",
"----------''----------",
"!!!-------''------!!!!",
"!!!-------~'-----!!!!!",
"!!----------------!!-!",
"!!-------------!-!!--!",
"!!-----!!!!!!!!!!!--!!",
"{{{{{{--{{------{{--{{",
"{{{{{---{--------{{--{",
"{{{{{{{{{{{{{{{{{{{{{{"};
