/* XPM */
static char * maximize_prelight_xpm[] = {
"22 22 18 1",
" 	c None",
".	c #000000",
"+	c #6D7077",
"@	c #4D4F52",
"#	c #4C4E51",
"$	c #4B4D50",
"%	c #4B4D4F",
"&	c #4A4C4F",
"*	c #494B4E",
"=	c #4A4C4E",
"-	c #494B4D",
";	c #494B4B",
">	c #494B4C",
",	c #C2C2C2",
"'	c #C1C1C1",
")	c #484A4B",
"!	c #484A4A",
"~	c #47494A",
"......................",
"++++++++++++++++++++++",
"@@@@@@@@@@@@@@@@@@@@@@",
"@@@@@@@@@@@@@@@@@@@@@@",
"#################$$%%$",
"&**$&==-;;;;;;->*-;;;>",
"-;;;;;;;;;;;;;;;;;;;;;",
";;;;;;;;;;;;;;;;;;;;;;",
";;;;;;;;;;,,;;;;;;;;;;",
";;;;;;;;;;,,;;;;;;;;;;",
";;;;;;;;;;,,;;;;;;;;;;",
";;;;;;;',,,,,,,;;;;;;;",
";;;;;;;',,,,,,,;;;;;;;",
";;;;;;;;;;,,;;;;;;;;;;",
"))));;;;;;,,;;;;;;);))",
")))));;;;;,,;;;;;);;))",
")));));;;;;;;;;;);;;))",
"));;;;;;;;;;;;;););;))",
"));;;;;;))))))))));;))",
"!!;;;;;;!!;;;;!!!!;!!!",
"!!;;;;;;;;;;;!!!!!;;;!",
"!!;;!!!!!!!!!!!!!!!!!~"};
