/* XPM */
static char * menu_active_xpm[] = {
"22 22 13 1",
" 	c None",
".	c #000000",
"+	c #6D7077",
"@	c #4D4F52",
"#	c #4C4E51",
"$	c #494B4C",
"%	c #494B4D",
"&	c #4A4C4E",
"*	c #4A4C4D",
"=	c #494B4B",
"-	c #484A4B",
";	c #47494B",
">	c #484A4A",
"......................",
"++++++++++++++++++++++",
"@@@@@@@@@@@@@@@@@@@@@@",
"##@@@@@@@@############",
"$%%&&&&&&&**&*$$$$***&",
"======================",
"$=====================",
"======================",
"======================",
"======================",
"======================",
"======================",
"======================",
"======================",
"----------------------",
"----------------------",
"----------------------",
"-------------------;--",
"-------=--------------",
">>>>>>>>>>>>>>>>>>>>>>",
">====>>>>>>>>>>>>>>>>>",
">>>>>>>>>>>>>>>>>>>>>>"};
