/* XPM */
static char * title_2_active_xpm[] = {
"12 22 12 1",
" 	c None",
".	c #000000",
"+	c #6D7077",
"@	c #4D4F52",
"#	c #4C4E51",
"$	c #4B4D50",
"%	c #494B4C",
"&	c #494B4D",
"*	c #494B4E",
"=	c #494B4B",
"-	c #484A4B",
";	c #484A4A",
"............",
"++++++++++++",
"@@@@@@@@@@@@",
"@@@@@@@@@@@@",
"############",
"########$$$$",
"%%&&&&&&&&&*",
"============",
"============",
"============",
"============",
"============",
"============",
"============",
"-----=======",
"--==========",
"============",
"=========---",
"====--------",
";;;=========",
"=========;;;",
";;;;;;;;;;;;"};
