/* XPM */
static char * title_5_inactive_xpm[] = {
"12 22 8 1",
" 	c None",
".	c #000000",
"+	c #6D7077",
"@	c #4D4F52",
"#	c #4B4D4F",
"$	c #4A4C4E",
"%	c #494B4C",
"&	c #494B4B",
"............",
"++++++++++++",
"@@@@@@@@@@@@",
"@@@@@@@@@@@@",
"#####$$$$$$#",
"%%&&&&&&&&&%",
"&&&&&&&&&&&&",
"&&&&&&&&&&&&",
"&&&&&&&&&&&&",
"&&&&&&&&&&&&",
"&&&&&&&&&&&&",
"&&&&&&&&&&&&",
"&&&&&&&&&&&&",
"&&&&&&&&&&&&",
"&&&&&&&&&&&&",
"&&&&&&&&&&&&",
"&&&&&&&&&&&&",
"&&&&&&&&&&&&",
"&&&&&&&&&&&&",
"&&&&&&&&&&&&",
"&&&&&&&&&&&&",
"&&&&&&&&&&&&"};
