/* XPM */
static char * title_4_inactive_xpm[] = {
"12 22 10 1",
" 	c None",
".	c #000000",
"+	c #6D7077",
"@	c #4D4F52",
"#	c #4B4D50",
"$	c #4B4D4F",
"%	c #4A4C4E",
"&	c #4A4C4D",
"*	c #494B4C",
"=	c #494B4B",
"............",
"++++++++++++",
"@@@@@@@@@@@@",
"@@@@@@@@@@@@",
"########$###",
"%&***====***",
"============",
"============",
"============",
"============",
"============",
"============",
"============",
"============",
"============",
"============",
"============",
"============",
"============",
"============",
"============",
"============"};
