/* XPM */
static char * title_1_active_shaded_xpm[] = {
"12 22 9 1",
" 	c None",
".	c #000000",
"+	c #6D7077",
"@	c #4D4F52",
"#	c #4C4E51",
"$	c #494B4D",
"%	c #494B4C",
"&	c #494B4B",
"*	c #484A4A",
"............",
"++++++++++++",
"@@@@@@@@@@@@",
"@@@@@@@@@@@@",
"############",
"############",
"$%%$$$%%&&$$",
"&&&&&&&&&&&&",
"&&&&&&&&&&&&",
"&&&&&&&&&&&&",
"&&&&&&&&&&&&",
"&&&&&&&&&&&&",
"&&&&&&&&&&&&",
"&&&&&&&&&&&&",
"&&&&&&&&&&&&",
"&&&&&&&&&&&&",
"&&&&&&&&&&&&",
"&&&&&&&&&&&&",
"&&&&&&&&&&&&",
"&&&&&&&&&&&&",
"&&&&&&&&&&&&",
"************"};
