/* XPM */
static char * title_1_active_xpm[] = {
"12 22 12 1",
" 	c None",
".	c #000000",
"+	c #6D7077",
"@	c #4C4E51",
"#	c #4D4F52",
"$	c #4C4E50",
"%	c #4B4D50",
"&	c #4B4D4F",
"*	c #494B4C",
"=	c #494B4B",
"-	c #484A4B",
";	c #484A4A",
"............",
"++++++++++++",
"@###########",
"@$$$%%%$&&&&",
"*===========",
"============",
"============",
"============",
"============",
"============",
"============",
"============",
"============",
"============",
"---=--------",
"---=-=------",
"------------",
"----==-----=",
"-=------===-",
";===========",
";===========",
";==========="};
