/* XPM */
static char * title_3_active_xpm[] = {
"12 22 11 1",
" 	c None",
".	c #000000",
"+	c #6D7077",
"@	c #4D4F52",
"#	c #4C4E51",
"$	c #4A4C4F",
"%	c #4B4D50",
"&	c #494B4C",
"*	c #494B4B",
"=	c #484A4B",
"-	c #484A4A",
"............",
"++++++++++++",
"@@@@@@@@@@@@",
"@@@@@@@@@@@@",
"############",
"$$$$$%%%%%%%",
"&***********",
"************",
"************",
"************",
"************",
"************",
"************",
"************",
"===***====**",
"==**=====**=",
"========*===",
"************",
"************",
"************",
"***********-",
"------------"};
