/* XPM */
static char * title_5_active_xpm[] = {
"12 22 13 1",
" 	c None",
".	c #000000",
"+	c #6D7077",
"@	c #4D4F52",
"#	c #4C4E51",
"$	c #4A4C4D",
"%	c #4A4C4E",
"&	c #4B4D4F",
"*	c #4B4D50",
"=	c #494B4B",
"-	c #494B4C",
";	c #494B4D",
">	c #484A4B",
"............",
"++++++++++++",
"@@@@@@@@@@@@",
"####@@@@@@@@",
"$$%%&&&&&&**",
"==========-;",
"============",
"============",
"============",
"============",
"============",
"============",
"============",
"============",
"============",
"============",
"============",
"============",
">>==========",
"============",
"============",
"============"};
