/* XPM */
static char * title_4_active_xpm[] = {
"12 22 10 1",
" 	c None",
".	c #000000",
"+	c #6D7077",
"@	c #4D4F52",
"#	c #4B4D50",
"$	c #4B4D4F",
"%	c #494B4B",
"&	c #494B4C",
"*	c #484A4B",
"=	c #484A4A",
"............",
"++++++++++++",
"@@@@@@@@@@@@",
"@@@@@@@@@@@@",
"##$#########",
"%%%%%%&&&&%&",
"%%%%%%%%%%%%",
"%%%%%%%%%%%%",
"%%%%%%%%%%%%",
"%%%%%%%%%%%%",
"%%%%%%%%%%%%",
"%%%%%%%%%%%%",
"%%%%%%%%%%%%",
"%%%%%%%%%%%%",
"%%%%%%%%%%%*",
"%%%%%%%%%%**",
"%%%%%%%%%%**",
"*%%%%%%*%%**",
"*%%%%%%***%*",
"=%%%%=====%%",
"===%%%%%=%%%",
"%%%%%%%%%%%%"};
